<?xml version="1.0" encoding="iso-8859-1"?>
<!-- Generator: Adobe Illustrator 19.0.0, SVG Export Plug-In . SVG Version: 6.00 Build 0)  -->
<svg version="1.1" id="Capa_1" xmlns="http://www.w3.org/2000/svg" xmlns:xlink="http://www.w3.org/1999/xlink" x="0px" y="0px"
	 viewBox="0 0 512 512" style="enable-background:new 0 0 512 512;" xml:space="preserve">
<path style="fill:#FFDA8F;" d="M219.057,14.61l-27.546,42.152c-9.713,14.864-11.706,33.485-5.356,50.067l11.093,28.972h69.901
	l11.093-28.972c6.349-16.582,4.357-35.204-5.356-50.067L245.339,14.61C239.143,5.13,225.253,5.13,219.057,14.61z"/>
<path style="fill:#FCD26D;" d="M235.858,111.956c-6.349-16.582-4.357-35.203,5.356-50.067l17.511-26.795L245.339,14.61
	c-6.196-9.481-20.086-9.48-26.281,0l-27.546,42.152c-9.714,14.864-11.706,33.485-5.356,50.067l11.093,28.972h47.74L235.858,111.956z
	"/>
<circle style="fill:#F4A240;" cx="232.2" cy="68.08" r="15"/>
<path style="fill:#FCD26D;" d="M296.412,443.827c28.944,0,53.775-20.632,59.078-49.085l22.315-119.737
	c2.7-14.49-16.139-22.634-24.788-10.699c-19.141,26.413-42.477,68.388-58.827,130.321L296.412,443.827z"/>
<path style="fill:#FFC73B;" d="M358.115,380.658c-3.535-34.999-14.354-63.911-25.025-84.945
	c-13.862,24.898-27.946,57.423-38.9,98.914l2.222,49.2c28.944,0,53.775-20.632,59.078-49.085L358.115,380.658z"/>
<path style="fill:#57565C;" d="M257.573,122.832h-50.75c-15.211,0-28.428,10.639-31.471,25.543
	c-8.915,43.661-10.466,89.397-10.466,89.397H299.51c0,0-1.55-45.736-10.466-89.397C286.001,133.471,272.784,122.832,257.573,122.832
	z"/>
<path style="fill:#3E3D42;" d="M270.484,125.524c-3.977-1.736-8.357-2.692-12.911-2.692h-50.75
	c-15.211,0-28.428,10.639-31.471,25.542c-8.915,43.661-10.466,89.397-10.466,89.397h76.557c0,0,1.551-45.736,10.466-89.397
	C254.041,137.933,261.178,129.587,270.484,125.524z"/>
<path style="fill:#787680;" d="M292.613,213.084h-120.83c-20.357,0-37.064,16.191-37.605,36.542
	c-1.339,50.373,1.785,144.265,35.801,226.538c7.084,17.133,23.766,28.336,42.306,28.336h39.826c18.54,0,35.223-11.203,42.306-28.336
	c34.016-82.273,37.14-176.165,35.801-226.539C329.677,229.275,312.97,213.084,292.613,213.084z"/>
<path style="fill:#57565C;" d="M231.352,238.192l11.242-25.109h-70.811c-20.383,0-37.067,16.225-37.607,36.601
	c-1.337,50.462,1.809,144.516,35.954,226.844c7.048,16.993,23.758,27.971,42.155,27.971h39.826l0,0
	c-43.362-38.446-43.463-135.851-39.389-192.356C214.564,286.593,220.884,261.572,231.352,238.192z"/>
<path style="fill:#FCD26D;" d="M166.765,468.112c1.04,2.694,2.109,5.379,3.214,8.051c7.084,17.133,23.767,28.336,42.306,28.336
	h39.826c18.54,0,35.222-11.203,42.306-28.336c1.104-2.672,2.173-5.357,3.214-8.051H166.765z"/>
<path style="fill:#FFC73B;" d="M227.876,468.112h-61.111c1.041,2.694,2.109,5.379,3.214,8.051
	c7.084,17.133,23.767,28.336,42.306,28.336h39.826C241.73,495.295,233.834,482.705,227.876,468.112z"/>
<path d="M372.6,252.843c-9.368-4.024-19.679-1.186-25.656,7.063c-3.066,4.23-6.066,8.636-9.002,13.177
	c0.062-8.698-0.039-16.638-0.226-23.656c-0.313-11.807-5.159-22.846-13.644-31.083c-5.44-5.282-11.995-9.031-19.115-11.045
	c-1.45-15.899-4.068-38.406-8.564-60.423c-2.071-10.143-8.025-18.737-16.117-24.383l4.97-12.98
	c7.188-18.772,4.915-40.025-6.081-56.852L251.618,10.51C247.317,3.928,240.059,0,232.198,0s-15.119,3.928-19.419,10.507
	L185.232,52.66c-10.996,16.827-13.271,38.08-6.082,56.852l4.97,12.981c-8.092,5.645-14.046,14.24-16.118,24.383
	c-2.092,10.247-3.955,21.458-5.539,33.32c-0.548,4.106,2.337,7.878,6.442,8.426c4.103,0.545,7.878-2.336,8.426-6.442
	c1.538-11.523,3.344-22.392,5.368-32.303c2.313-11.325,12.458-19.544,24.123-19.544h50.75c11.665,0,21.811,8.219,24.122,19.543
	c4.081,19.981,6.573,40.455,8.036,55.708H171.783c-11.813,0-22.984,4.531-31.458,12.758c-8.485,8.238-13.331,19.277-13.645,31.084
	c-1.321,49.704,1.646,145.625,36.367,229.604c8.282,20.028,27.608,32.97,49.238,32.97h39.826c21.629,0,40.955-12.942,49.236-32.971
	c4.02-9.724,7.61-19.608,10.821-29.562c25.721-6.161,45.789-27.036,50.695-53.352l22.314-119.737
	C387.049,266.336,381.994,256.878,372.6,252.843z M232.198,75.58c-4.136,0-7.5-3.364-7.5-7.5s3.364-7.5,7.5-7.5s7.5,3.364,7.5,7.5
	S236.334,75.58,232.198,75.58z M239.698,115.332V89.29c8.729-3.096,15-11.432,15-21.21c0-12.407-10.094-22.5-22.5-22.5
	s-22.5,10.093-22.5,22.5c0,9.777,6.271,18.114,15,21.21v26.042h-17.875c-3.076,0-6.084,0.363-8.984,1.04l-4.681-12.225
	c-5.472-14.291-3.741-30.471,4.631-43.282l27.547-42.152c1.542-2.359,4.043-3.713,6.862-3.713s5.32,1.354,6.862,3.713l27.547,42.151
	c8.371,12.811,10.103,28.991,4.63,43.283l-4.68,12.224c-2.9-0.677-5.908-1.04-8.984-1.04L239.698,115.332L239.698,115.332z
	 M287.486,473.298C281.533,487.696,267.647,497,252.111,497h-39.826c-14.686,0-27.886-8.318-34.317-21.388h87.411
	c4.143,0,7.5-3.358,7.5-7.5s-3.357-7.5-7.5-7.5h-93.431c-28.98-78.259-31.496-164.776-30.273-210.788
	c0.437-16.396,13.661-29.241,30.108-29.241h120.83c16.446,0,29.671,12.844,30.107,29.241
	C324.011,298.336,321.149,391.877,287.486,473.298z M370.432,273.63l-22.314,119.737c-3.24,17.381-14.982,31.705-30.694,38.573
	c12.496-45.004,17.747-90.349,19.63-127.821c6.829-12.733,14.235-24.646,22.037-35.413c2.739-3.782,6.501-2.549,7.59-2.082
	C367.778,267.097,371.295,268.997,370.432,273.63z"/>
<g>
</g>
<g>
</g>
<g>
</g>
<g>
</g>
<g>
</g>
<g>
</g>
<g>
</g>
<g>
</g>
<g>
</g>
<g>
</g>
<g>
</g>
<g>
</g>
<g>
</g>
<g>
</g>
<g>
</g>
</svg>
